<?xml version="1.0" encoding="UTF-8"?><svg id="a" xmlns="http://www.w3.org/2000/svg" viewBox="0 0 1366 768"><defs><style>.b{fill:#ffc317;}.c{fill:#fff;stroke:#fff;stroke-miterlimit:10;stroke-width:8.36px;}</style></defs><path class="c" d="M-71.81,85.92c17.43,1.22,23.51,10.94,36.88,10.13,15.81-.81,28.37-14.59,46.2-16.21,17.83-1.62,39.31,11.75,53.5,11.35,14.19-.41,20.67-12.56,36.88-15,16.62-2.43,26.34,7.29,22.29,22.7-3.24,12.16-11.35,17.02-15,27.15-3.24,10.13,1.22,20.67-2.02,29.58-5.27,12.56-25.94,16.62-33.23,.81-6.89-15.81,7.7-25.13-4.05-36.07-11.35-10.94-29.99,6.08-45.39,5.67-15.4-.41-27.15-10.94-37.69-3.65-10.94,6.89-.81,20.26-.81,31.61,0,10.13-13.78,20.26-12.97,29.99,1.22,14.59,27.15,16.62,36.47,10.13,11.76-7.7,13.78-17.83,23.91-23.1,9.32-5.27,20.26,2.03,20.67,15,.4,17.83-14.59,30.4-18.64,42.15-4.05,12.97,2.43,29.18-4.05,40.53-8.1,13.37-37.69,17.43-38.9-12.16-.41-9.32,8.1-12.16,7.29-22.7-1.22-13.78-21.07-20.67-28.77-8.51-8.51,12.97-.81,29.58-2.03,41.74-1.22,12.56-15.81,30.4-9.73,41.74,5.27,9.73,22.29-1.22,31.61,4.86,12.57,8.1,10.13,29.18-7.7,34.45-17.83,5.27-37.29-1.62-53.09,0-16.21,1.62-31.21,13.37-43.36,10.54-17.83-4.05-18.24-27.15-1.22-38.1,18.64-11.75,32.83,.41,41.34-9.32,9.73-10.94-6.08-33.23-4.46-47.42,1.62-15.4,16.21-17.83,17.02-30.8,.81-12.97-7.3-28.37-7.3-48.23,0-22.7,22.29-30.8,17.83-49.04-3.24-13.78-27.56-4.05-39.72-14.18-12.56-10.54-3.65-37.29,18.24-35.67Z"/><path class="c" d="M163.01-35.15c20.26-3.65,35.26,12.16,49.85,12.16,12.97,0,28.77-6.89,41.74-6.89,15,0,27.56,12.16,29.99,26.75,2.03,13.78-8.11,21.48-6.48,32.02,2.43,12.56,15.4,17.83,17.83,33.23,2.03,15-7.7,26.75-22.29,26.75-12.56,0-24.72-13.37-34.45-15.4-8.92-2.03-15.4,3.65-12.16,14.59,6.89,19.05,32.83,21.88,38.91,43.77,4.86,19.45-9.32,28.37-7.7,38.1,1.62,7.29,7.29,12.56,17.83,10.13,10.94-2.43,19.45-15.4,29.99-15.4,8.51,0,15.4,7.7,16.21,17.83,.81,16.62-18.24,45.8-49.85,45.8-19.45,0-32.02-15.81-34.45-32.02-1.62-14.59,3.24-25.94,.41-34.85-4.05-12.16-22.29-19.86-27.15-31.61-4.05-9.73,2.03-22.7-4.46-32.42-8.11-12.56-25.53,1.62-31.2,18.64-4.46,13.78,2.03,24.72-.81,38.5-2.43,11.75-20.26,16.21-15.81,28.37,4.86,13.37,25.13,0,36.07,6.89,12.57,7.29,13.38,32.02-8.92,36.07-11.35,2.03-22.29-8.51-35.26-6.08-10.94,2.03-16.21,12.56-33.64,14.19-23.51,2.03-30.8-28.78-13.78-36.07,8.51-3.65,14.59-2.03,20.67-9.32,10.54-13.37-1.22-33.23,4.46-49.04,5.67-14.19,18.64-17.02,23.1-37.29,4.46-20.67-2.03-38.5,3.24-52.69,6.89-16.62,30.8-24.72,34.04-35.26,2.43-9.73-1.22-17.43-8.92-16.21-8.92,1.22-12.97,6.48-21.48,6.48-17.43,0-23.1-34.85,4.46-39.72ZM231.9,5.78c-6.89-2.84-15.81,0-18.64,5.67-3.65,6.08-1.22,15-3.24,21.48-2.84,6.08-6.48,11.35-10.54,15-8.92,9.32-3.24,16.62,5.67,8.51,3.65-3.65,12.56-7.29,17.43-8.1,8.51-1.22,17.02,6.48,25.13,3.65,6.89-2.43,7.7-19.45,1.62-23.91-3.24-1.62-7.3-1.62-10.54-5.67-2.84-4.46,.41-13.38-6.89-16.62Z"/><path class="c" d="M1204.75,99.92c17.43,1.22,23.51,10.94,36.88,10.13,15.81-.81,28.37-14.59,46.2-16.21,17.83-1.62,39.31,11.75,53.5,11.35,14.19-.41,20.67-12.56,36.88-15,16.62-2.43,26.34,7.29,22.29,22.7-3.24,12.16-11.35,17.02-15,27.15-3.24,10.13,1.22,20.67-2.02,29.58-5.27,12.56-25.94,16.62-33.23,.81-6.89-15.81,7.7-25.13-4.05-36.07-11.35-10.94-29.99,6.08-45.39,5.67-15.4-.41-27.15-10.94-37.69-3.65-10.94,6.89-.81,20.26-.81,31.61,0,10.13-13.78,20.26-12.97,29.99,1.22,14.59,27.15,16.62,36.47,10.13,11.76-7.7,13.78-17.83,23.91-23.1,9.32-5.27,20.26,2.03,20.67,15,.4,17.83-14.59,30.4-18.64,42.15-4.05,12.97,2.43,29.18-4.05,40.53-8.1,13.37-37.69,17.43-38.9-12.16-.41-9.32,8.1-12.16,7.29-22.7-1.22-13.78-21.07-20.67-28.77-8.51-8.51,12.97-.81,29.58-2.03,41.74-1.22,12.56-15.81,30.4-9.73,41.74,5.27,9.73,22.29-1.22,31.61,4.86,12.57,8.1,10.13,29.18-7.7,34.45-17.83,5.27-37.29-1.62-53.09,0-16.21,1.62-31.21,13.37-43.36,10.54-17.83-4.05-18.24-27.15-1.22-38.1,18.64-11.75,32.83,.41,41.34-9.32,9.73-10.94-6.08-33.23-4.46-47.42,1.62-15.4,16.21-17.83,17.02-30.8,.81-12.97-7.3-28.37-7.3-48.23,0-22.7,22.29-30.8,17.83-49.04-3.24-13.78-27.56-4.05-39.72-14.18-12.56-10.54-3.65-37.29,18.24-35.67Z"/><path class="c" d="M414.02,92.57c14.19-.41,22.29,6.89,31.61,8.1,7.7,.81,11.75-6.89,21.88-4.05,15.81,4.46,19.86,28.78-2.03,37.69-15.4,6.48-33.23-10.54-42.56,.81-10.54,12.97,3.24,47.01-2.03,64.03-6.08,21.48-21.48,24.32-24.72,42.55-2.03,11.75,6.89,21.48,7.3,35.26,.81,13.78-13.38,36.07-5.67,46.2,7.29,10.13,31.2-7.29,44.98-6.48,14.19,.81,20.67,27.15-1.62,37.29-12.16,5.27-17.83-5.67-27.96-4.05-14.59,2.43-19.05,15.4-34.04,15.81-15.81,.41-17.83-9.73-27.56-11.75-14.59-2.84-29.99,9.73-48.63,5.67-22.29-4.86-20.67-36.88,5.27-40.12,16.21-2.03,32.02,12.16,46.61,.81,11.35-8.92,.4-28.77,1.62-40.12,1.62-13.78,9.73-18.64,12.16-33.64,2.43-15-4.86-23.51-3.65-36.48,1.62-12.97,17.83-29.18,21.89-41.34,4.05-13.37,1.62-33.23-11.35-35.26-8.51-1.22-15,8.51-27.96,6.48-19.86-3.24-19.05-32.02,3.65-36.48,15-2.43,18.64,4.05,29.99,1.62,15-3.24,17.43-12.16,32.83-12.56Z"/><path class="c" d="M738.63,500.97c17.43,1.22,23.51,10.94,36.88,10.13,15.81-.81,28.37-14.59,46.2-16.21,17.83-1.62,39.31,11.75,53.5,11.35,14.19-.41,20.67-12.56,36.88-15,16.62-2.43,26.34,7.29,22.29,22.7-3.24,12.16-11.35,17.02-15,27.15-3.24,10.13,1.22,20.67-2.02,29.58-5.27,12.56-25.94,16.62-33.23,.81-6.89-15.81,7.7-25.13-4.05-36.07-11.35-10.94-29.99,6.08-45.39,5.67-15.4-.41-27.15-10.94-37.69-3.65-10.94,6.89-.81,20.26-.81,31.61,0,10.13-13.78,20.26-12.97,29.99,1.22,14.59,27.15,16.62,36.47,10.13,11.76-7.7,13.78-17.83,23.91-23.1,9.32-5.27,20.26,2.03,20.67,15,.4,17.83-14.59,30.4-18.64,42.15-4.05,12.97,2.43,29.18-4.05,40.53-8.1,13.37-37.69,17.43-38.9-12.16-.41-9.32,8.1-12.16,7.29-22.7-1.22-13.78-21.07-20.67-28.77-8.51-8.51,12.97-.81,29.58-2.03,41.74-1.22,12.56-15.81,30.4-9.73,41.74,5.27,9.73,22.29-1.22,31.61,4.86,12.57,8.1,10.13,29.18-7.7,34.45-17.83,5.27-37.29-1.62-53.09,0-16.21,1.62-31.21,13.37-43.36,10.54-17.83-4.05-18.24-27.15-1.22-38.1,18.64-11.75,32.83,.41,41.34-9.32,9.73-10.94-6.08-33.23-4.46-47.42,1.62-15.4,16.21-17.83,17.02-30.8,.81-12.97-7.3-28.37-7.3-48.23,0-22.7,22.29-30.8,17.83-49.04-3.24-13.78-27.56-4.05-39.72-14.18-12.56-10.54-3.65-37.29,18.24-35.67Z"/><path class="c" d="M983.45,379.89c20.26-3.65,35.26,12.16,49.85,12.16,12.97,0,28.77-6.89,41.74-6.89,15,0,27.56,12.16,29.99,26.75,2.03,13.78-8.11,21.48-6.48,32.02,2.43,12.56,15.4,17.83,17.83,33.23,2.03,15-7.7,26.75-22.29,26.75-12.56,0-24.72-13.37-34.45-15.4-8.92-2.03-15.4,3.65-12.16,14.59,6.89,19.05,32.83,21.88,38.91,43.77,4.86,19.45-9.32,28.37-7.7,38.1,1.62,7.29,7.29,12.56,17.83,10.13,10.94-2.43,19.45-15.4,29.99-15.4,8.51,0,15.4,7.7,16.21,17.83,.81,16.62-18.24,45.8-49.85,45.8-19.45,0-32.02-15.81-34.45-32.02-1.62-14.59,3.24-25.94,.41-34.85-4.05-12.16-22.29-19.86-27.15-31.61-4.05-9.73,2.03-22.7-4.46-32.42-8.11-12.56-25.53,1.62-31.2,18.64-4.46,13.78,2.03,24.72-.81,38.5-2.43,11.75-20.26,16.21-15.81,28.37,4.86,13.37,25.13,0,36.07,6.89,12.57,7.29,13.38,32.02-8.92,36.07-11.35,2.03-22.29-8.51-35.26-6.08-10.94,2.03-16.21,12.56-33.64,14.19-23.51,2.03-30.8-28.78-13.78-36.07,8.51-3.65,14.59-2.03,20.67-9.32,10.54-13.37-1.22-33.23,4.46-49.04,5.67-14.19,18.64-17.02,23.1-37.29,4.46-20.67-2.03-38.5,3.24-52.69,6.89-16.62,30.8-24.72,34.04-35.26,2.43-9.73-1.22-17.43-8.92-16.21-8.92,1.22-12.97,6.48-21.48,6.48-17.43,0-23.1-34.85,4.46-39.72Zm68.9,40.93c-6.89-2.84-15.81,0-18.64,5.67-3.65,6.08-1.22,15-3.24,21.48-2.84,6.08-6.48,11.35-10.54,15-8.92,9.32-3.24,16.62,5.67,8.51,3.65-3.65,12.56-7.29,17.43-8.1,8.51-1.22,17.02,6.48,25.13,3.65,6.89-2.43,7.7-19.45,1.62-23.91-3.24-1.62-7.3-1.62-10.54-5.67-2.84-4.46,.41-13.38-6.89-16.62Z"/><path class="c" d="M1219.47,512.61c14.19-.41,22.29,6.89,31.61,8.1,7.7,.81,11.75-6.89,21.88-4.05,15.81,4.46,19.86,28.78-2.03,37.69-15.4,6.48-33.23-10.54-42.56,.81-10.54,12.97,3.24,47.01-2.03,64.03-6.08,21.48-21.48,24.32-24.72,42.55-2.03,11.75,6.89,21.48,7.3,35.26,.81,13.78-13.38,36.07-5.67,46.2,7.29,10.13,31.2-7.29,44.98-6.48,14.19,.81,20.67,27.15-1.62,37.29-12.16,5.27-17.83-5.67-27.96-4.05-14.59,2.43-19.05,15.4-34.04,15.81-15.81,.41-17.83-9.73-27.56-11.75-14.59-2.84-29.99,9.73-48.63,5.67-22.29-4.86-20.67-36.88,5.27-40.12,16.21-2.03,32.02,12.16,46.61,.81,11.35-8.92,.4-28.77,1.62-40.12,1.62-13.78,9.73-18.64,12.16-33.64,2.43-15-4.86-23.51-3.65-36.48,1.62-12.97,17.83-29.18,21.89-41.34,4.05-13.37,1.62-33.23-11.35-35.26-8.51-1.22-15,8.51-27.96,6.48-19.86-3.24-19.05-32.02,3.65-36.48,15-2.43,18.64,4.05,29.99,1.62,15-3.24,17.43-12.16,32.83-12.56Z"/><path class="c" d="M937.47,710.61c14.19-.41,22.29,6.89,31.61,8.1,7.7,.81,11.75-6.89,21.88-4.05,15.81,4.46,19.86,28.78-2.03,37.69-15.4,6.48-33.23-10.54-42.56,.81-10.54,12.97,3.24,47.01-2.03,64.03-6.08,21.48-21.48,24.32-24.72,42.55-2.03,11.75,6.89,21.48,7.3,35.26,.81,13.78-13.38,36.07-5.67,46.2,7.29,10.13,31.2-7.29,44.98-6.48,14.19,.81,20.67,27.15-1.62,37.29-12.16,5.27-17.83-5.67-27.96-4.05-14.59,2.43-19.05,15.4-34.04,15.81-15.81,.41-17.83-9.73-27.56-11.75-14.59-2.84-29.99,9.73-48.63,5.67-22.29-4.86-20.67-36.88,5.27-40.12,16.21-2.03,32.02,12.16,46.61,.81,11.35-8.92,.4-28.77,1.62-40.12,1.62-13.78,9.73-18.64,12.16-33.64,2.43-15-4.86-23.51-3.65-36.48,1.62-12.97,17.83-29.18,21.89-41.34,4.05-13.37,1.62-33.23-11.35-35.26-8.51-1.22-15,8.51-27.96,6.48-19.86-3.24-19.05-32.02,3.65-36.48,15-2.43,18.64,4.05,29.99,1.62,15-3.24,17.43-12.16,32.83-12.56Z"/><path class="c" d="M593.99,30.07c8.51,17.83-34.45,29.99-32.02,59.98,1.22,15.81,18.24,19.86,31.21,16.21,12.16-3.24,1.62-23.91,17.83-35.26,18.64-12.97,27.96,2.84,42.15,.81,15-2.03,18.24-18.24,35.26-18.64,19.05-.81,29.18,18.64,24.32,38.91-3.24,13.78-16.21,15.81-23.1,28.37-5.27,9.73,1.62,27.56-9.32,37.29-10.94,9.73-35.66,4.86-48.23-7.29-18.24-17.83-51.88-.81-39.72,17.83,6.89,10.54,24.32,7.7,35.67,17.02,21.07,17.43,3.24,47.42-24.72,39.31-17.43-5.27-21.07-26.34-42.55-29.58-17.83-2.84-30.8,14.18-27.56,35.26,2.43,15.81,9.32,20.67,12.56,30.8,4.05,12.56-.41,25.94,12.56,33.23,13.38,7.3,23.1-6.08,36.48-7.7,15-1.62,28.37,6.48,41.34,2.03,19.05-6.48,14.19-49.85,34.86-51.47,32.83-2.43,32.01,64.03-2.84,77.41-12.56,4.86-24.72-.41-36.47,3.65-13.78,4.86-24.32,22.29-47.42,22.7-23.51,.41-31.61-14.19-45.39-26.34-13.38-11.75-29.18-15-35.66-34.04-6.49-19.05,3.24-40.93,5.27-55.93,2.84-20.67-4.05-39.72,8.91-55.12,15.4-18.24,43.37-6.89,50.26-25.13,7.3-19.86-38.91-31.21-40.53-68.9-1.22-31.21,19.05-50.25,35.26-54.71,11.76-3.24,25.94-2.43,31.61,9.32Zm35.26,78.63c-1.21,11.35,5.68,22.7,16.62,22.7,12.16,0,10.54-9.32,15.81-14.18,5.27-4.86,15-3.65,15-12.97,0-11.35-14.59-14.19-25.13-12.97-10.54,1.22-21.48,6.89-22.29,17.43Z"/><path class="c" d="M1401.29,334.56c8.51,17.83-34.45,29.99-32.02,59.98,1.22,15.81,18.24,19.86,31.21,16.21,12.16-3.24,1.62-23.91,17.83-35.26,18.64-12.97,27.96,2.84,42.15,.81,15-2.03,18.24-18.24,35.26-18.64,19.05-.81,29.18,18.64,24.32,38.91-3.24,13.78-16.21,15.81-23.1,28.37-5.27,9.73,1.62,27.56-9.32,37.29-10.94,9.73-35.66,4.86-48.23-7.29-18.24-17.83-51.88-.81-39.72,17.83,6.89,10.54,24.32,7.7,35.67,17.02,21.07,17.43,3.24,47.42-24.72,39.31-17.43-5.27-21.07-26.34-42.55-29.58-17.83-2.84-30.8,14.18-27.56,35.26,2.43,15.81,9.32,20.67,12.56,30.8,4.05,12.56-.41,25.94,12.56,33.23,13.38,7.3,23.1-6.08,36.48-7.7,15-1.62,28.37,6.48,41.34,2.03,19.05-6.48,14.19-49.85,34.86-51.47,32.83-2.43,32.01,64.03-2.84,77.41-12.56,4.86-24.72-.41-36.47,3.65-13.78,4.86-24.32,22.29-47.42,22.7-23.51,.41-31.61-14.19-45.39-26.34-13.38-11.75-29.18-15-35.66-34.04-6.49-19.05,3.24-40.93,5.27-55.93,2.84-20.67-4.05-39.72,8.91-55.12,15.4-18.24,43.37-6.89,50.26-25.13,7.3-19.86-38.91-31.21-40.53-68.9-1.22-31.21,19.05-50.25,35.26-54.71,11.76-3.24,25.94-2.43,31.61,9.32Zm35.26,78.63c-1.21,11.35,5.68,22.7,16.62,22.7,12.16,0,10.54-9.32,15.81-14.18,5.27-4.86,15-3.65,15-12.97,0-11.35-14.59-14.19-25.13-12.97-10.54,1.22-21.48,6.89-22.29,17.43Z"/><path class="c" d="M866.05,353.93c-1.22,15,9.32,27.96,12.57,41.34,4.46,19.45-7.7,30.8-23.1,23.51-13.78-6.48-27.56-23.91-39.31-44.99-19.45-35.67-28.77-107.4-50.66-106.59-13.78,.41-2.03,28.37-6.49,44.99-4.86,17.83-45.8,53.09-29.99,68.49,10.54,10.13,24.72-10.94,39.31-12.56,12.97-1.62,25.53,14.19,21.48,25.94-4.87,14.59-17.43,11.75-27.96,19.05-7.7,5.27-12.16,17.02-21.88,20.67-8.92,3.24-16.21-1.62-24.32,1.62-11.75,4.86-8.11,11.75-24.72,15.4-15.81,3.65-28.77-15.81-22.7-29.58,7.7-17.43,22.29-6.48,31.21-23.51,6.49-12.56-3.24-47.01,0-68.9,4.05-26.75,34.85-39.31,33.23-87.54-.81-24.72,8.51-47.82,25.13-46.61,20.26,1.62,25.94,36.07,32.83,49.85,6.08,11.75,17.43,13.78,24.72,23.1,7.7,9.73,4.86,36.88,11.75,49.44,6.49,12.16,18.24,12.56,20.26-2.84,1.62-11.35-6.08-30.4-5.67-41.34,.4-15.81,27.96-29.18,27.96-39.72-.41-10.94-8.51-14.59-21.07-13.37-32.42,3.24-42.96-15-42.96-24.32s1.62-19.45,35.66-13.78c44.18,7.29,58.36-24.72,74.98-29.99,17.83-5.67,25.53,6.89,25.53,19.86-.4,23.51-31.61,19.86-35.26,43.36-3.65,23.1-31.61,49.44-32.83,64.03-1.21,15.4,4.87,17.02,3.65,34.45-1.22,16.62-10.13,24.72-11.35,40.53Z"/><path class="c" d="M72.05,935.93c-1.22,15,9.32,27.96,12.57,41.34,4.46,19.45-7.7,30.8-23.1,23.51-13.78-6.48-27.56-23.91-39.31-44.99-19.45-35.67-28.77-107.4-50.66-106.59-13.78,.41-2.03,28.37-6.49,44.99-4.86,17.83-45.8,53.09-29.99,68.49,10.54,10.13,24.72-10.94,39.31-12.56,12.97-1.62,25.53,14.19,21.48,25.94-4.87,14.59-17.43,11.75-27.96,19.05-7.7,5.27-12.16,17.02-21.88,20.67-8.92,3.24-16.21-1.62-24.32,1.62-11.75,4.86-8.11,11.75-24.72,15.4-15.81,3.65-28.77-15.81-22.7-29.58,7.7-17.43,22.29-6.48,31.21-23.51,6.49-12.56-3.24-47.01,0-68.9,4.05-26.75,34.85-39.31,33.23-87.54-.81-24.72,8.51-47.82,25.13-46.61,20.26,1.62,25.94,36.07,32.83,49.85,6.08,11.75,17.43,13.78,24.72,23.1,7.7,9.73,4.86,36.88,11.75,49.44,6.49,12.16,18.24,12.56,20.26-2.84,1.62-11.35-6.08-30.4-5.67-41.34,.4-15.81,27.96-29.18,27.96-39.72-.41-10.94-8.51-14.59-21.07-13.37-32.42,3.24-42.96-15-42.96-24.32s1.62-19.45,35.66-13.78c44.18,7.29,58.36-24.72,74.98-29.99,17.83-5.67,25.53,6.89,25.53,19.86-.4,23.51-31.61,19.86-35.26,43.36-3.65,23.1-31.61,49.44-32.83,64.03-1.21,15.4,4.87,17.02,3.65,34.45-1.22,16.62-10.13,24.72-11.35,40.53Z"/><path class="c" d="M1040.13-5.06c16.7,5.96,2.38,36.18,13.52,45.73,11.13,9.54,36.98-1.99,54.08,11.13,14.31,10.74,12.72,25.45,21.47,34.2,8.35,8.35,18.29,7.95,24.65,22.27,8.35,19.09-4.77,49.7-6.36,73.56-1.59,24.65,5.57,49.3-9.15,70.38-17.1,24.26-41.35,17.5-57.26,21.47-16.7,4.38-20.28,21.47-44.93,21.47s-29.42-20.68-52.49-21.07c-24.25-.4-30.61,27.44-58.05,31.41-25.85,3.58-38.57-29.03-9.54-40.96,14.71-5.96,22.27-1.59,31.02-7.95,9.14-6.36,4.37-18.29,9.54-28.23,5.17-9.94,15.11-18.29,17.49-37.38,2.78-23.86-5.57-31.41-3.58-51.69,1.99-19.48,27.04-36.18,19.08-52.49-9.54-18.69-34.99,10.74-52.48,6.36-17.89-4.37-19.88-27.04,5.96-42.15,21.47-12.33,33.4,4.37,53.28-4.38,21.47-9.54,21.08-59.64,43.74-51.69Zm8.35,70.38c-15.91-.79-27.44,16.7-30.22,35.39-2.78,19.09,2.78,40.16-2.78,66.8-6.36,30.62-31.41,58.85-25.45,71.57,5.96,12.33,19.08,5.17,31.01,7.16,11.53,1.59,21.47,11.13,38.97,9.94,16.3-1.19,22.27-11.93,34.2-22.66,10.34-9.15,24.26-13.92,24.65-34.2,.4-17.89-9.14-29.03-9.94-44.13-.79-12.72,8.75-37.77,1.99-48.51-6.76-10.74-19.88-2.78-31.41-12.33-12.72-10.34-9.14-27.83-31.01-29.03Z"/><path class="c" d="M-56.81,422.14c14.19-.41,22.29,6.89,31.61,8.1,7.7,.81,11.75-6.89,21.88-4.05,15.81,4.46,19.86,28.78-2.03,37.69-15.4,6.48-33.23-10.54-42.56,.81-10.54,12.97,3.24,47.01-2.03,64.03-6.08,21.48-21.48,24.32-24.72,42.55-2.03,11.75,6.89,21.48,7.3,35.26,.81,13.78-13.38,36.07-5.67,46.2,7.29,10.13,31.2-7.29,44.98-6.48,14.19,.81,20.67,27.15-1.62,37.29-12.16,5.27-17.83-5.67-27.96-4.05-14.59,2.43-19.05,15.4-34.04,15.81-15.81,.41-17.83-9.73-27.56-11.75-14.59-2.84-29.99,9.73-48.63,5.67-22.29-4.86-20.67-36.88,5.27-40.12,16.21-2.03,32.02,12.16,46.61,.81,11.35-8.92,.4-28.77,1.62-40.12,1.62-13.78,9.73-18.64,12.16-33.64,2.43-15-4.86-23.51-3.65-36.48,1.62-12.97,17.83-29.18,21.89-41.34,4.05-13.37,1.62-33.23-11.35-35.26-8.51-1.22-15,8.51-27.96,6.48-19.86-3.24-19.05-32.02,3.65-36.48,15-2.43,18.64,4.05,29.99,1.62,15-3.24,17.43-12.16,32.83-12.56Z"/><path class="c" d="M111.17,320.64c8.51,17.83-34.45,29.99-32.02,59.98,1.22,15.81,18.24,19.86,31.21,16.21,12.16-3.24,1.62-23.91,17.83-35.26,18.64-12.97,27.96,2.84,42.15,.81,15-2.03,18.24-18.24,35.26-18.64,19.05-.81,29.18,18.64,24.32,38.91-3.24,13.78-16.21,15.81-23.1,28.37-5.27,9.73,1.62,27.56-9.32,37.29-10.94,9.73-35.66,4.86-48.23-7.29-18.24-17.83-51.88-.81-39.72,17.83,6.89,10.54,24.32,7.7,35.67,17.02,21.07,17.43,3.24,47.42-24.72,39.31-17.43-5.27-21.07-26.34-42.55-29.58-17.83-2.84-30.8,14.18-27.56,35.26,2.43,15.81,9.32,20.67,12.56,30.8,4.05,12.56-.41,25.94,12.56,33.23,13.38,7.3,23.1-6.08,36.48-7.7,15-1.62,28.37,6.48,41.34,2.03,19.05-6.48,14.19-49.85,34.86-51.47,32.83-2.43,32.01,64.03-2.84,77.41-12.56,4.86-24.72-.41-36.47,3.65-13.78,4.86-24.32,22.29-47.42,22.7-23.51,.41-31.61-14.19-45.39-26.34-13.38-11.75-29.18-15-35.66-34.04-6.49-19.05,3.24-40.93,5.27-55.93,2.84-20.67-4.05-39.72,8.91-55.12,15.4-18.24,43.37-6.89,50.26-25.13,7.3-19.86-38.91-31.21-40.53-68.9-1.22-31.21,19.05-50.25,35.26-54.71,11.76-3.24,25.94-2.43,31.61,9.32Zm35.26,78.63c-1.21,11.35,5.68,22.7,16.62,22.7,12.16,0,10.54-9.32,15.81-14.18,5.27-4.86,15-3.65,15-12.97,0-11.35-14.59-14.19-25.13-12.97-10.54,1.22-21.48,6.89-22.29,17.43Z"/><path class="c" d="M383.23,644.5c-1.22,15,9.32,27.96,12.57,41.34,4.46,19.45-7.7,30.8-23.1,23.51-13.78-6.48-27.56-23.91-39.31-44.99-19.45-35.67-28.77-107.4-50.66-106.59-13.78,.41-2.03,28.37-6.49,44.99-4.86,17.83-45.8,53.09-29.99,68.49,10.54,10.13,24.72-10.94,39.31-12.56,12.97-1.62,25.53,14.19,21.48,25.94-4.87,14.59-17.43,11.75-27.96,19.05-7.7,5.27-12.16,17.02-21.88,20.67-8.92,3.24-16.21-1.62-24.32,1.62-11.75,4.86-8.11,11.75-24.72,15.4-15.81,3.65-28.77-15.81-22.7-29.58,7.7-17.43,22.29-6.48,31.21-23.51,6.49-12.56-3.24-47.01,0-68.9,4.05-26.75,34.85-39.31,33.23-87.54-.81-24.72,8.51-47.82,25.13-46.61,20.26,1.62,25.94,36.07,32.83,49.85,6.08,11.75,17.43,13.78,24.72,23.1,7.7,9.73,4.86,36.88,11.75,49.44,6.49,12.16,18.24,12.56,20.26-2.84,1.62-11.35-6.08-30.4-5.67-41.34,.4-15.81,27.96-29.18,27.96-39.72-.41-10.94-8.51-14.59-21.07-13.37-32.42,3.24-42.96-15-42.96-24.32s1.62-19.45,35.66-13.78c44.18,7.29,58.36-24.72,74.98-29.99,17.83-5.67,25.53,6.89,25.53,19.86-.4,23.51-31.61,19.86-35.26,43.36-3.65,23.1-31.61,49.44-32.83,64.03-1.21,15.4,4.87,17.02,3.65,34.45-1.22,16.62-10.13,24.72-11.35,40.53Z"/><path class="c" d="M1421.23,935.5c-1.22,15,9.32,27.96,12.57,41.34,4.46,19.45-7.7,30.8-23.1,23.51-13.78-6.48-27.56-23.91-39.31-44.99-19.45-35.67-28.77-107.4-50.66-106.59-13.78,.41-2.03,28.37-6.49,44.99-4.86,17.83-45.8,53.09-29.99,68.49,10.54,10.13,24.72-10.94,39.31-12.56,12.97-1.62,25.53,14.19,21.48,25.94-4.87,14.59-17.43,11.75-27.96,19.05-7.7,5.27-12.16,17.02-21.88,20.67-8.92,3.24-16.21-1.62-24.32,1.62-11.75,4.86-8.11,11.75-24.72,15.4-15.81,3.65-28.77-15.81-22.7-29.58,7.7-17.43,22.29-6.48,31.21-23.51,6.49-12.56-3.24-47.01,0-68.9,4.05-26.75,34.85-39.31,33.23-87.54-.81-24.72,8.51-47.82,25.13-46.61,20.26,1.62,25.94,36.07,32.83,49.85,6.08,11.75,17.43,13.78,24.72,23.1,7.7,9.73,4.86,36.88,11.75,49.44,6.49,12.16,18.24,12.56,20.26-2.84,1.62-11.35-6.08-30.4-5.67-41.34,.4-15.81,27.96-29.18,27.96-39.72-.41-10.94-8.51-14.59-21.07-13.37-32.42,3.24-42.96-15-42.96-24.32s1.62-19.45,35.66-13.78c44.18,7.29,58.36-24.72,74.98-29.99,17.83-5.67,25.53,6.89,25.53,19.86-.4,23.51-31.61,19.86-35.26,43.36-3.65,23.1-31.61,49.44-32.83,64.03-1.21,15.4,4.87,17.02,3.65,34.45-1.22,16.62-10.13,24.72-11.35,40.53Z"/><path class="c" d="M567.51,471.19c16.7,5.96,2.38,36.18,13.52,45.73,11.13,9.54,36.98-1.99,54.08,11.13,14.31,10.74,12.72,25.45,21.47,34.2,8.35,8.35,18.29,7.95,24.65,22.27,8.35,19.09-4.77,49.7-6.36,73.56-1.59,24.65,5.57,49.3-9.15,70.38-17.1,24.26-41.35,17.5-57.26,21.47-16.7,4.38-20.28,21.47-44.93,21.47s-29.42-20.68-52.49-21.07c-24.25-.4-30.61,27.44-58.05,31.41-25.85,3.58-38.57-29.03-9.54-40.96,14.71-5.96,22.27-1.59,31.02-7.95,9.14-6.36,4.37-18.29,9.54-28.23,5.17-9.94,15.11-18.29,17.49-37.38,2.78-23.86-5.57-31.41-3.58-51.69,1.99-19.48,27.04-36.18,19.08-52.49-9.54-18.69-34.99,10.74-52.48,6.36-17.89-4.37-19.88-27.04,5.96-42.15,21.47-12.33,33.4,4.37,53.28-4.38,21.47-9.54,21.08-59.64,43.74-51.69Zm8.35,70.38c-15.91-.79-27.44,16.7-30.22,35.39-2.78,19.09,2.78,40.16-2.78,66.8-6.36,30.62-31.41,58.85-25.45,71.57,5.96,12.33,19.08,5.17,31.01,7.16,11.53,1.59,21.47,11.13,38.97,9.94,16.3-1.19,22.27-11.93,34.2-22.66,10.34-9.15,24.26-13.92,24.65-34.2,.4-17.89-9.14-29.03-9.94-44.13-.79-12.72,8.75-37.77,1.99-48.51-6.76-10.74-19.88-2.78-31.41-12.33-12.72-10.34-9.14-27.83-31.01-29.03Z"/><path class="b" d="M571.51,372.72c1.59,.99,3.77,.5,4.86-1.29,1.19-2.08,1.49-5.65,4.17-6.94,3.37-1.59,7.34,.69,6.65,4.96-.4,2.38-2.98,3.37-4.07,5.06-1.09,1.59-.3,3.37,1.09,3.77,1.79,.5,4.07-.1,6.05,.89,2.88,1.49,2.98,6.05,0,7.24-2.18,.89-4.26-.4-5.85-.3-1.59,.1-2.88,1.49-2.58,3.17,.3,1.69,2.68,5.26,.99,7.84-1.98,2.98-5.46,3.57-8.33,1.79-2.38-1.49-1.39-5.36-1.49-7.24-.1-1.98-2.28-2.78-3.77-2.08-1.79,.79-3.17,3.37-5.85,3.27-3.08-.1-5.26-2.88-3.97-6.25,1.09-2.98,4.36-2.88,6.05-4.07,1.49-1.09,1.49-2.98,.3-4.07-1.29-1.09-4.36-1.49-4.96-4.17-.79-3.37,1.49-6.25,4.96-5.95,3.08,.3,4.07,3.37,5.75,4.36Z"/><path class="b" d="M301.51,419.72c1.59,.99,3.77,.5,4.86-1.29,1.19-2.08,1.49-5.65,4.17-6.94,3.37-1.59,7.34,.69,6.65,4.96-.4,2.38-2.98,3.37-4.07,5.06-1.09,1.59-.3,3.37,1.09,3.77,1.79,.5,4.07-.1,6.05,.89,2.88,1.49,2.98,6.05,0,7.24-2.18,.89-4.26-.4-5.85-.3-1.59,.1-2.88,1.49-2.58,3.17,.3,1.69,2.68,5.26,.99,7.84-1.98,2.98-5.46,3.57-8.33,1.79-2.38-1.49-1.39-5.36-1.49-7.24-.1-1.98-2.28-2.78-3.77-2.08-1.79,.79-3.17,3.37-5.85,3.27-3.08-.1-5.26-2.88-3.97-6.25,1.09-2.98,4.36-2.88,6.05-4.07,1.49-1.09,1.49-2.98,.3-4.07-1.29-1.09-4.36-1.49-4.96-4.17-.79-3.37,1.49-6.25,4.96-5.95,3.08,.3,4.07,3.37,5.75,4.36Z"/><path class="b" d="M1057.51,697.72c1.59,.99,3.77,.5,4.86-1.29,1.19-2.08,1.49-5.65,4.17-6.94,3.37-1.59,7.34,.69,6.65,4.96-.4,2.38-2.98,3.37-4.07,5.06-1.09,1.59-.3,3.37,1.09,3.77,1.79,.5,4.07-.1,6.05,.89,2.88,1.49,2.98,6.05,0,7.24-2.18,.89-4.26-.4-5.85-.3-1.59,.1-2.88,1.49-2.58,3.17,.3,1.69,2.68,5.26,.99,7.84-1.98,2.98-5.46,3.57-8.33,1.79-2.38-1.49-1.39-5.36-1.49-7.24-.1-1.98-2.28-2.78-3.77-2.08-1.79,.79-3.17,3.37-5.85,3.27-3.08-.1-5.26-2.88-3.97-6.25,1.09-2.98,4.36-2.88,6.05-4.07,1.49-1.09,1.49-2.98,.3-4.07-1.29-1.09-4.36-1.49-4.96-4.17-.79-3.37,1.49-6.25,4.96-5.95,3.08,.3,4.07,3.37,5.75,4.36Z"/><path class="b" d="M1155.51,460.72c1.59,.99,3.77,.5,4.86-1.29,1.19-2.08,1.49-5.65,4.17-6.94,3.37-1.59,7.34,.69,6.65,4.96-.4,2.38-2.98,3.37-4.07,5.06-1.09,1.59-.3,3.37,1.09,3.77,1.79,.5,4.07-.1,6.05,.89,2.88,1.49,2.98,6.05,0,7.24-2.18,.89-4.26-.4-5.85-.3-1.59,.1-2.88,1.49-2.58,3.17,.3,1.69,2.68,5.26,.99,7.84-1.98,2.98-5.46,3.57-8.33,1.79-2.38-1.49-1.39-5.36-1.49-7.24-.1-1.98-2.28-2.78-3.77-2.08-1.79,.79-3.17,3.37-5.85,3.27-3.08-.1-5.26-2.88-3.97-6.25,1.09-2.98,4.36-2.88,6.05-4.07,1.49-1.09,1.49-2.98,.3-4.07-1.29-1.09-4.36-1.49-4.96-4.17-.79-3.37,1.49-6.25,4.96-5.95,3.08,.3,4.07,3.37,5.75,4.36Z"/><path class="b" d="M1282.51,639.72c1.59,.99,3.77,.5,4.86-1.29,1.19-2.08,1.49-5.65,4.17-6.94,3.37-1.59,7.34,.69,6.65,4.96-.4,2.38-2.98,3.37-4.07,5.06-1.09,1.59-.3,3.37,1.09,3.77,1.79,.5,4.07-.1,6.05,.89,2.88,1.49,2.98,6.05,0,7.24-2.18,.89-4.26-.4-5.85-.3-1.59,.1-2.88,1.49-2.58,3.17,.3,1.69,2.68,5.26,.99,7.84-1.98,2.98-5.46,3.57-8.33,1.79-2.38-1.49-1.39-5.36-1.49-7.24-.1-1.98-2.28-2.78-3.77-2.08-1.79,.79-3.17,3.37-5.85,3.27-3.08-.1-5.26-2.88-3.97-6.25,1.09-2.98,4.36-2.88,6.05-4.07,1.49-1.09,1.49-2.98,.3-4.07-1.29-1.09-4.36-1.49-4.96-4.17-.79-3.37,1.49-6.25,4.96-5.95,3.08,.3,4.07,3.37,5.75,4.36Z"/><path class="b" d="M243.51,282.72c1.59,.99,3.77,.5,4.86-1.29,1.19-2.08,1.49-5.65,4.17-6.94,3.37-1.59,7.34,.69,6.65,4.96-.4,2.38-2.98,3.37-4.07,5.06-1.09,1.59-.3,3.37,1.09,3.77,1.79,.5,4.07-.1,6.05,.89,2.88,1.49,2.98,6.05,0,7.24-2.18,.89-4.26-.4-5.85-.3-1.59,.1-2.88,1.49-2.58,3.17,.3,1.69,2.68,5.26,.99,7.84-1.98,2.98-5.46,3.57-8.33,1.79-2.38-1.49-1.39-5.36-1.49-7.24-.1-1.98-2.28-2.78-3.77-2.08-1.79,.79-3.17,3.37-5.85,3.27-3.08-.1-5.26-2.88-3.97-6.25,1.09-2.98,4.36-2.88,6.05-4.07,1.49-1.09,1.49-2.98,.3-4.07-1.29-1.09-4.36-1.49-4.96-4.17-.79-3.37,1.49-6.25,4.96-5.95,3.08,.3,4.07,3.37,5.75,4.36Z"/><path class="b" d="M66.51,46.72c1.59,.99,3.77,.5,4.86-1.29,1.19-2.08,1.49-5.65,4.17-6.94,3.37-1.59,7.34,.69,6.65,4.96-.4,2.38-2.98,3.37-4.07,5.06-1.09,1.59-.3,3.37,1.09,3.77,1.79,.5,4.07-.1,6.05,.89,2.88,1.49,2.98,6.05,0,7.24-2.18,.89-4.26-.4-5.85-.3-1.59,.1-2.88,1.49-2.58,3.17,.3,1.69,2.68,5.26,.99,7.84-1.98,2.98-5.46,3.57-8.33,1.79-2.38-1.49-1.39-5.36-1.49-7.24-.1-1.98-2.28-2.78-3.77-2.08-1.79,.79-3.17,3.37-5.85,3.27-3.08-.1-5.26-2.88-3.97-6.25,1.09-2.98,4.36-2.88,6.05-4.07,1.49-1.09,1.49-2.98,.3-4.07-1.29-1.09-4.36-1.49-4.96-4.17-.79-3.37,1.49-6.25,4.96-5.95,3.08,.3,4.07,3.37,5.75,4.36Z"/><path class="b" d="M83.51,688.72c1.59,.99,3.77,.5,4.86-1.29,1.19-2.08,1.49-5.65,4.17-6.94,3.37-1.59,7.34,.69,6.65,4.96-.4,2.38-2.98,3.37-4.07,5.06-1.09,1.59-.3,3.37,1.09,3.77,1.79,.5,4.07-.1,6.05,.89,2.88,1.49,2.98,6.05,0,7.24-2.18,.89-4.26-.4-5.85-.3-1.59,.1-2.88,1.49-2.58,3.17,.3,1.69,2.68,5.26,.99,7.84-1.98,2.98-5.46,3.57-8.33,1.79-2.38-1.49-1.39-5.36-1.49-7.24-.1-1.98-2.28-2.78-3.77-2.08-1.79,.79-3.17,3.37-5.85,3.27-3.08-.1-5.26-2.88-3.97-6.25,1.09-2.98,4.36-2.88,6.05-4.07,1.49-1.09,1.49-2.98,.3-4.07-1.29-1.09-4.36-1.49-4.96-4.17-.79-3.37,1.49-6.25,4.96-5.95,3.08,.3,4.07,3.37,5.75,4.36Z"/><path class="b" d="M149.51,652.72c1.59,.99,3.77,.5,4.86-1.29,1.19-2.08,1.49-5.65,4.17-6.94,3.37-1.59,7.34,.69,6.65,4.96-.4,2.38-2.98,3.37-4.07,5.06-1.09,1.59-.3,3.37,1.09,3.77,1.79,.5,4.07-.1,6.05,.89,2.88,1.49,2.98,6.05,0,7.24-2.18,.89-4.26-.4-5.85-.3-1.59,.1-2.88,1.49-2.58,3.17,.3,1.69,2.68,5.26,.99,7.84-1.98,2.98-5.46,3.57-8.33,1.79-2.38-1.49-1.39-5.36-1.49-7.24-.1-1.98-2.28-2.78-3.77-2.08-1.79,.79-3.17,3.37-5.85,3.27-3.08-.1-5.26-2.88-3.97-6.25,1.09-2.98,4.36-2.88,6.05-4.07,1.49-1.09,1.49-2.98,.3-4.07-1.29-1.09-4.36-1.49-4.96-4.17-.79-3.37,1.49-6.25,4.96-5.95,3.08,.3,4.07,3.37,5.75,4.36Z"/><path class="b" d="M449.28,29.09c1.59,.99,3.77,.5,4.86-1.29,1.19-2.08,1.49-5.65,4.17-6.94,3.37-1.59,7.34,.69,6.65,4.96-.4,2.38-2.98,3.37-4.07,5.06-1.09,1.59-.3,3.37,1.09,3.77,1.79,.5,4.07-.1,6.05,.89,2.88,1.49,2.98,6.05,0,7.24-2.18,.89-4.26-.4-5.85-.3-1.59,.1-2.88,1.49-2.58,3.17,.3,1.69,2.68,5.26,.99,7.84-1.98,2.98-5.46,3.57-8.33,1.79-2.38-1.49-1.39-5.36-1.49-7.24-.1-1.98-2.28-2.78-3.77-2.08-1.79,.79-3.17,3.37-5.85,3.27-3.08-.1-5.26-2.88-3.97-6.25,1.09-2.98,4.36-2.88,6.05-4.07,1.49-1.09,1.49-2.98,.3-4.07-1.29-1.09-4.36-1.49-4.96-4.17-.79-3.37,1.49-6.25,4.96-5.95,3.08,.3,4.07,3.37,5.75,4.36Z"/><path class="b" d="M848.28,108.09c1.59,.99,3.77,.5,4.86-1.29,1.19-2.08,1.49-5.65,4.17-6.94,3.37-1.59,7.34,.69,6.65,4.96-.4,2.38-2.98,3.37-4.07,5.06-1.09,1.59-.3,3.37,1.09,3.77,1.79,.5,4.07-.1,6.05,.89,2.88,1.49,2.98,6.05,0,7.24-2.18,.89-4.26-.4-5.85-.3-1.59,.1-2.88,1.49-2.58,3.17,.3,1.69,2.68,5.26,.99,7.84-1.98,2.98-5.46,3.57-8.33,1.79-2.38-1.49-1.39-5.36-1.49-7.24-.1-1.98-2.28-2.78-3.77-2.08-1.79,.79-3.17,3.37-5.85,3.27-3.08-.1-5.26-2.88-3.97-6.25,1.09-2.98,4.36-2.88,6.05-4.07,1.49-1.09,1.49-2.98,.3-4.07-1.29-1.09-4.36-1.49-4.96-4.17-.79-3.37,1.49-6.25,4.96-5.95,3.08,.3,4.07,3.37,5.75,4.36Z"/><path class="b" d="M1248.7,55.66c1.59,.99,3.77,.5,4.86-1.29,1.19-2.08,1.49-5.65,4.17-6.94,3.37-1.59,7.34,.69,6.65,4.96-.4,2.38-2.98,3.37-4.07,5.06-1.09,1.59-.3,3.37,1.09,3.77,1.79,.5,4.07-.1,6.05,.89,2.88,1.49,2.98,6.05,0,7.24-2.18,.89-4.26-.4-5.85-.3-1.59,.1-2.88,1.49-2.58,3.17,.3,1.69,2.68,5.26,.99,7.84-1.98,2.98-5.46,3.57-8.33,1.79-2.38-1.49-1.39-5.36-1.49-7.24-.1-1.98-2.28-2.78-3.77-2.08-1.79,.79-3.17,3.37-5.85,3.27-3.08-.1-5.26-2.88-3.97-6.25,1.09-2.98,4.36-2.88,6.05-4.07,1.49-1.09,1.49-2.98,.3-4.07-1.29-1.09-4.36-1.49-4.96-4.17-.79-3.37,1.49-6.25,4.96-5.95,3.08,.3,4.07,3.37,5.75,4.36Z"/><path class="b" d="M1313.7,28.66c1.59,.99,3.77,.5,4.86-1.29,1.19-2.08,1.49-5.65,4.17-6.94,3.37-1.59,7.34,.69,6.65,4.96-.4,2.38-2.98,3.37-4.07,5.06-1.09,1.59-.3,3.37,1.09,3.77,1.79,.5,4.07-.1,6.05,.89,2.88,1.49,2.98,6.05,0,7.24-2.18,.89-4.26-.4-5.85-.3-1.59,.1-2.88,1.49-2.58,3.17,.3,1.69,2.68,5.26,.99,7.84-1.98,2.98-5.46,3.57-8.33,1.79-2.38-1.49-1.39-5.36-1.49-7.24-.1-1.98-2.28-2.78-3.77-2.08-1.79,.79-3.17,3.37-5.85,3.27-3.08-.1-5.26-2.88-3.97-6.25,1.09-2.98,4.36-2.88,6.05-4.07,1.49-1.09,1.49-2.98,.3-4.07-1.29-1.09-4.36-1.49-4.96-4.17-.79-3.37,1.49-6.25,4.96-5.95,3.08,.3,4.07,3.37,5.75,4.36Z"/><path class="b" d="M919.8,328.68c1.59,.99,3.77,.5,4.86-1.29,1.19-2.08,1.49-5.65,4.17-6.94,3.37-1.59,7.34,.69,6.65,4.96-.4,2.38-2.98,3.37-4.07,5.06-1.09,1.59-.3,3.37,1.09,3.77,1.79,.5,4.07-.1,6.05,.89,2.88,1.49,2.98,6.05,0,7.24-2.18,.89-4.26-.4-5.85-.3-1.59,.1-2.88,1.49-2.58,3.17,.3,1.69,2.68,5.26,.99,7.84-1.98,2.98-5.46,3.57-8.33,1.79-2.38-1.49-1.39-5.36-1.49-7.24-.1-1.98-2.28-2.78-3.77-2.08-1.79,.79-3.17,3.37-5.85,3.27-3.08-.1-5.26-2.88-3.97-6.25,1.09-2.98,4.36-2.88,6.05-4.07,1.49-1.09,1.49-2.98,.3-4.07-1.29-1.09-4.36-1.49-4.96-4.17-.79-3.37,1.49-6.25,4.96-5.95,3.08,.3,4.07,3.37,5.75,4.36Z"/><path class="b" d="M860.8-9.32c1.59,.99,3.77,.5,4.86-1.29,1.19-2.08,1.49-5.65,4.17-6.94,3.37-1.59,7.34,.69,6.65,4.96-.4,2.38-2.98,3.37-4.07,5.06-1.09,1.59-.3,3.37,1.09,3.77,1.79,.5,4.07-.1,6.05,.89,2.88,1.49,2.98,6.05,0,7.24-2.18,.89-4.26-.4-5.85-.3-1.59,.1-2.88,1.49-2.58,3.17,.3,1.69,2.68,5.26,.99,7.84-1.98,2.98-5.46,3.57-8.33,1.79-2.38-1.49-1.39-5.36-1.49-7.24-.1-1.98-2.28-2.78-3.77-2.08-1.79,.79-3.17,3.37-5.85,3.27-3.08-.1-5.26-2.88-3.97-6.25,1.09-2.98,4.36-2.88,6.05-4.07,1.49-1.09,1.49-2.98,.3-4.07-1.29-1.09-4.36-1.49-4.96-4.17-.79-3.37,1.49-6.25,4.96-5.95,3.08,.3,4.07,3.37,5.75,4.36Z"/></svg>