<?xml version="1.0" encoding="UTF-8"?><svg id="a" xmlns="http://www.w3.org/2000/svg" viewBox="0 0 36 38.7"><defs><style>.b{fill:#98a1ed;}</style></defs><path class="b" d="M13.44,9.41c1.71,1.07,4.06,.53,5.24-1.39,1.28-2.24,1.6-6.09,4.49-7.48,3.63-1.71,7.91,.75,7.16,5.34-.43,2.56-3.21,3.63-4.38,5.45-1.18,1.71-.32,3.63,1.18,4.06,1.92,.53,4.38-.11,6.52,.96,3.1,1.6,3.21,6.52,0,7.8-2.35,.96-4.59-.43-6.3-.32-1.71,.11-3.1,1.6-2.78,3.42,.32,1.82,2.88,5.66,1.07,8.44-2.14,3.21-5.88,3.85-8.97,1.92-2.57-1.6-1.5-5.77-1.6-7.8-.11-2.14-2.46-2.99-4.06-2.24-1.92,.85-3.42,3.63-6.3,3.53-3.31-.11-5.66-3.1-4.27-6.73,1.18-3.21,4.7-3.1,6.52-4.38,1.6-1.18,1.6-3.21,.32-4.38-1.39-1.18-4.7-1.6-5.34-4.49-.85-3.63,1.6-6.73,5.34-6.41,3.31,.32,4.38,3.63,6.2,4.7Z"/></svg>