<?xml version="1.0" encoding="UTF-8"?><svg id="a" xmlns="http://www.w3.org/2000/svg" viewBox="0 0 286.01 344.72"><defs><style>.b{fill:#fff;stroke:#fff;stroke-miterlimit:10;stroke-width:9px;}</style></defs><path class="b" d="M156.04,5.42c17.99,6.42,2.57,38.98,14.56,49.26,11.99,10.28,39.83-2.14,58.25,11.99,15.42,11.56,13.71,27.41,23.13,36.83,8.99,8.99,19.7,8.57,26.56,23.98,8.99,20.56-5.14,53.54-6.85,79.24-1.71,26.56,6,53.11-9.85,75.81-18.42,26.13-44.54,18.85-61.68,23.13-17.99,4.71-21.84,23.13-48.4,23.13s-31.7-22.27-56.54-22.7c-26.13-.43-32.98,29.55-62.53,33.84-27.84,3.85-41.55-31.27-10.28-44.12,15.85-6.42,23.99-1.71,33.41-8.57,9.85-6.85,4.71-19.7,10.28-30.41,5.57-10.71,16.28-19.7,18.85-40.26,3-25.7-6-33.84-3.85-55.68,2.14-20.99,29.12-38.98,20.56-56.54-10.28-20.13-37.69,11.56-56.54,6.85-19.27-4.71-21.42-29.12,6.42-45.4,23.13-13.28,35.98,4.71,57.39-4.71,23.13-10.28,22.7-64.25,47.12-55.68Zm8.99,75.81c-17.13-.86-29.55,17.99-32.55,38.12-3,20.56,3,43.26-3,71.96-6.85,32.98-33.84,63.39-27.41,77.1,6.42,13.28,20.56,5.57,33.41,7.71,12.42,1.71,23.13,11.99,41.97,10.71,17.56-1.28,23.99-12.85,36.83-24.41,11.14-9.85,26.13-14.99,26.56-36.84,.43-19.27-9.85-31.27-10.71-47.54-.86-13.71,9.42-40.69,2.14-52.25-7.28-11.56-21.41-3-33.84-13.28-13.71-11.14-9.85-29.98-33.41-31.27Z"/></svg>