<?xml version="1.0" encoding="UTF-8"?><svg id="a" xmlns="http://www.w3.org/2000/svg" viewBox="0 0 238.37 355.66"><defs><style>.b{fill:#fff;stroke:#fff;stroke-miterlimit:10;stroke-width:9px;}</style></defs><path class="b" d="M104.66,16.31c9.17,19.21-37.11,32.31-34.49,64.61,1.31,17.03,19.65,21.39,33.62,17.46,13.09-3.49,1.75-25.76,19.21-37.98,20.08-13.97,30.12,3.06,45.4,.87,16.15-2.18,19.65-19.64,37.98-20.08,20.52-.87,31.43,20.08,26.19,41.91-3.49,14.84-17.46,17.03-24.88,30.56-5.68,10.48,1.75,29.69-10.04,40.16-11.79,10.48-38.42,5.24-51.95-7.86-19.65-19.21-55.88-.87-42.79,19.21,7.42,11.35,26.19,8.3,38.42,18.34,22.7,18.77,3.49,51.08-26.63,42.35-18.77-5.67-22.7-28.38-45.84-31.87-19.21-3.06-33.18,15.28-29.69,37.98,2.62,17.03,10.04,22.26,13.53,33.18,4.37,13.53-.44,27.94,13.53,35.8,14.41,7.86,24.88-6.55,39.29-8.29,16.15-1.75,30.56,6.98,44.53,2.18,20.52-6.98,15.28-53.7,37.55-55.44,35.36-2.62,34.49,68.98-3.06,83.38-13.53,5.24-26.63-.44-39.29,3.93-14.84,5.24-26.19,24.01-51.08,24.45-25.32,.44-34.05-15.28-48.89-28.38-14.41-12.66-31.43-16.15-38.42-36.67-6.99-20.52,3.49-44.09,5.67-60.25,3.06-22.26-4.36-42.78,9.6-59.37,16.59-19.65,46.71-7.42,54.13-27.07,7.86-21.39-41.91-33.61-43.66-74.22C31.31,31.59,53.14,11.07,70.6,6.27c12.66-3.49,27.94-2.62,34.05,10.04Zm37.98,84.69c-1.31,12.22,6.11,24.45,17.9,24.45,13.1,0,11.35-10.04,17.03-15.28,5.68-5.24,16.15-3.93,16.15-13.97,0-12.22-15.72-15.28-27.07-13.97-11.35,1.31-23.14,7.42-24.01,18.77Z"/></svg>