<?xml version="1.0" encoding="UTF-8"?><svg id="a" xmlns="http://www.w3.org/2000/svg" viewBox="0 0 280.55 314.16"><defs><style>.b{fill:#fff;stroke:#fff;stroke-miterlimit:10;stroke-width:9px;}</style></defs><path class="b" d="M64.21,15.38c18.77,1.31,25.32,11.79,39.73,10.91,17.03-.87,30.56-15.72,49.77-17.46,19.21-1.75,42.35,12.66,57.63,12.22,15.28-.44,22.26-13.53,39.73-16.15,17.9-2.62,28.37,7.86,24.01,24.45-3.49,13.1-12.22,18.34-16.15,29.25-3.49,10.91,1.31,22.26-2.18,31.87-5.68,13.53-27.94,17.9-35.8,.87-7.42-17.03,8.29-27.07-4.37-38.85-12.22-11.79-32.31,6.55-48.9,6.11-16.59-.44-29.25-11.79-40.6-3.93-11.79,7.42-.87,21.83-.87,34.05,0,10.91-14.84,21.83-13.97,32.31,1.31,15.72,29.25,17.9,39.29,10.91,12.66-8.29,14.85-19.21,25.76-24.88,10.04-5.68,21.83,2.18,22.27,16.15,.43,19.21-15.72,32.74-20.08,45.4-4.37,13.97,2.62,31.43-4.37,43.66-8.73,14.41-40.6,18.77-41.91-13.1-.44-10.04,8.73-13.1,7.86-24.45-1.31-14.84-22.7-22.27-31-9.17-9.17,13.97-.87,31.87-2.18,44.97-1.31,13.53-17.03,32.74-10.48,44.97,5.68,10.48,24.01-1.31,34.05,5.24,13.54,8.73,10.91,31.43-8.29,37.11-19.21,5.67-40.16-1.75-57.19,0-17.46,1.75-33.62,14.41-46.71,11.35-19.21-4.36-19.65-29.25-1.31-41.04,20.08-12.66,35.36,.44,44.53-10.04,10.48-11.79-6.55-35.8-4.8-51.08,1.75-16.59,17.46-19.21,18.34-33.18,.87-13.97-7.86-30.56-7.86-51.95,0-24.45,24.01-33.18,19.21-52.82-3.49-14.84-29.69-4.37-42.78-15.28-13.53-11.35-3.93-40.16,19.65-38.42Z"/></svg>