<?xml version="1.0" encoding="UTF-8"?><svg id="a" xmlns="http://www.w3.org/2000/svg" viewBox="0 0 217.13 303.27"><defs><style>.b{fill:#fff;stroke:#fff;stroke-miterlimit:10;stroke-width:9px;}</style></defs><path class="b" d="M140.86,4.52c15.28-.44,24.01,7.42,34.05,8.73,8.29,.87,12.66-7.42,23.57-4.37,17.03,4.8,21.39,31-2.18,40.6-16.59,6.98-35.8-11.35-45.84,.87-11.35,13.97,3.49,50.64-2.18,68.98-6.55,23.14-23.14,26.19-26.63,45.84-2.18,12.66,7.42,23.14,7.86,37.98,.87,14.84-14.41,38.85-6.11,49.77,7.86,10.91,33.61-7.86,48.46-6.98,15.28,.87,22.27,29.25-1.75,40.16-13.1,5.67-19.21-6.11-30.12-4.37-15.72,2.62-20.52,16.59-36.67,17.03-17.03,.44-19.21-10.48-29.69-12.66-15.72-3.06-32.31,10.48-52.39,6.11-24.01-5.24-22.27-39.73,5.67-43.22,17.46-2.18,34.49,13.1,50.21,.87,12.22-9.6,.43-31,1.75-43.22,1.75-14.84,10.48-20.08,13.1-36.23,2.62-16.15-5.24-25.32-3.93-39.29,1.75-13.97,19.21-31.43,23.58-44.53,4.36-14.41,1.75-35.8-12.22-37.98-9.17-1.31-16.15,9.17-30.12,6.98-21.39-3.49-20.52-34.49,3.93-39.29,16.15-2.62,20.08,4.37,32.31,1.75,16.15-3.49,18.77-13.1,35.36-13.53Z"/></svg>