<?xml version="1.0" encoding="UTF-8"?><svg id="a" xmlns="http://www.w3.org/2000/svg" viewBox="0 0 305.33 333.17"><defs><style>.b{fill:#fff;stroke:#fff;stroke-miterlimit:10;stroke-width:9px;}</style></defs><path class="b" d="M219.19,223.85c-1.31,16.15,10.04,30.12,13.54,44.53,4.8,20.95-8.3,33.18-24.88,25.32-14.84-6.98-29.69-25.76-42.35-48.46-20.95-38.42-31-115.69-54.57-114.82-14.84,.44-2.18,30.56-6.99,48.46-5.24,19.21-49.33,57.19-32.3,73.78,11.35,10.91,26.63-11.79,42.34-13.53,13.97-1.75,27.51,15.28,23.14,27.94-5.24,15.72-18.77,12.66-30.12,20.52-8.3,5.67-13.1,18.34-23.57,22.27-9.6,3.49-17.46-1.75-26.19,1.75-12.66,5.24-8.73,12.66-26.63,16.59-17.03,3.93-31-17.03-24.45-31.87,8.3-18.77,24.01-6.98,33.62-25.32,6.99-13.53-3.49-50.64,0-74.22,4.37-28.81,37.54-42.35,35.8-94.3-.87-26.63,9.17-51.52,27.07-50.21,21.83,1.75,27.94,38.85,35.36,53.7,6.55,12.66,18.77,14.84,26.63,24.88,8.29,10.48,5.24,39.73,12.66,53.26,6.99,13.1,19.65,13.53,21.83-3.06,1.75-12.22-6.55-32.74-6.11-44.53,.43-17.03,30.12-31.43,30.12-42.78-.44-11.79-9.17-15.72-22.7-14.41-34.93,3.49-46.28-16.15-46.28-26.19s1.75-20.95,38.42-14.84c47.59,7.86,62.86-26.63,80.76-32.31,19.21-6.11,27.5,7.42,27.5,21.39-.43,25.32-34.05,21.39-37.98,46.71-3.93,24.88-34.05,53.26-35.36,68.98-1.31,16.59,5.24,18.34,3.93,37.11-1.31,17.9-10.91,26.63-12.22,43.66Z"/></svg>