<?xml version="1.0" encoding="UTF-8"?><svg id="a" xmlns="http://www.w3.org/2000/svg" viewBox="0 0 254.81 299.57"><defs><style>.b{fill:#fff;stroke:#fff;stroke-miterlimit:10;stroke-width:9px;}</style></defs><path class="b" d="M78.71,5.09c21.83-3.93,37.98,13.1,53.7,13.1,13.97,0,31-7.42,44.97-7.42,16.15,0,29.69,13.1,32.31,28.81,2.18,14.84-8.73,23.14-6.98,34.49,2.62,13.53,16.59,19.21,19.21,35.8,2.18,16.15-8.29,28.81-24.01,28.81-13.53,0-26.63-14.41-37.11-16.59-9.6-2.18-16.59,3.93-13.1,15.72,7.42,20.52,35.36,23.57,41.91,47.15,5.24,20.95-10.04,30.56-8.29,41.04,1.75,7.86,7.86,13.53,19.21,10.91,11.79-2.62,20.95-16.59,32.31-16.59,9.17,0,16.59,8.3,17.46,19.21,.87,17.9-19.65,49.33-53.7,49.33-20.96,0-34.49-17.03-37.11-34.49-1.75-15.72,3.49-27.94,.44-37.54-4.37-13.1-24.01-21.39-29.25-34.05-4.37-10.48,2.18-24.45-4.8-34.92-8.73-13.53-27.5,1.75-33.61,20.08-4.8,14.84,2.18,26.63-.88,41.47-2.62,12.66-21.83,17.46-17.03,30.56,5.24,14.41,27.07,0,38.85,7.42,13.54,7.86,14.41,34.49-9.6,38.85-12.22,2.18-24.01-9.17-37.98-6.55-11.79,2.18-17.46,13.53-36.23,15.28-25.32,2.18-33.18-31-14.84-38.85,9.17-3.93,15.72-2.18,22.26-10.04,11.35-14.41-1.31-35.8,4.8-52.82,6.11-15.28,20.08-18.34,24.88-40.16,4.8-22.27-2.18-41.47,3.49-56.75,7.42-17.9,33.18-26.63,36.67-37.98,2.62-10.48-1.31-18.77-9.6-17.46-9.6,1.31-13.97,6.98-23.14,6.98-18.77,0-24.88-37.54,4.8-42.78Zm74.22,44.09c-7.42-3.06-17.03,0-20.08,6.11-3.93,6.55-1.31,16.15-3.49,23.14-3.06,6.55-6.98,12.22-11.35,16.15-9.6,10.04-3.49,17.9,6.11,9.17,3.93-3.93,13.53-7.86,18.77-8.73,9.17-1.31,18.34,6.98,27.07,3.93,7.42-2.62,8.3-20.95,1.75-25.76-3.49-1.75-7.86-1.75-11.35-6.11-3.06-4.8,.44-14.41-7.42-17.9Z"/></svg>